<?xml version="1.0" standalone="no"?>
<!DOCTYPE svg PUBLIC "-//W3C//DTD SVG 20010904//EN"
 "http://www.w3.org/TR/2001/REC-SVG-20010904/DTD/svg10.dtd">
<svg version="1.0" xmlns="http://www.w3.org/2000/svg"
 width="512.000000pt" height="512.000000pt" viewBox="0 0 512.000000 512.000000"
 preserveAspectRatio="xMidYMid meet">
<metadata>
Created by potrace 1.11, written by Peter Selinger 2001-2013
</metadata>
<g transform="translate(0.000000,512.000000) scale(0.100000,-0.100000)"
fill="#000000" stroke="none">
<path d="M2379 5116 c-2 -2 -35 -6 -74 -10 -285 -25 -635 -125 -880 -251 -243
-126 -411 -243 -603 -420 -236 -217 -407 -448 -570 -770 -121 -239 -210 -549
-239 -835 -10 -94 -10 -465 0 -545 40 -321 113 -568 256 -865 29 -61 43 -86
115 -207 25 -42 130 -192 163 -233 147 -183 310 -342 486 -474 289 -216 651
-379 997 -449 215 -44 291 -52 525 -52 172 0 276 6 360 20 17 3 59 10 95 16
36 6 92 18 125 26 33 8 65 16 70 17 116 26 350 114 495 186 161 81 373 222
527 352 86 73 265 255 311 317 15 20 35 45 46 56 10 11 59 81 108 155 193 289
339 654 392 980 8 52 18 111 21 130 11 55 14 467 5 545 -16 130 -25 192 -34
230 -2 6 -6 28 -10 50 -4 22 -19 83 -33 135 -162 608 -556 1148 -1088 1492
-101 65 -369 208 -391 208 -3 0 -20 7 -37 14 -129 59 -400 132 -597 161 -19 3
-53 7 -75 11 -46 6 -460 16 -466 10z m479 -165 c89 -22 221 -80 289 -127 70
-49 142 -115 138 -127 -3 -7 -6 -23 -9 -37 -9 -49 -87 -372 -95 -393 -7 -17
-22 -25 -72 -34 -166 -32 -547 -149 -811 -249 l-146 -56 -164 70 c-172 74
-355 142 -500 187 -48 15 -86 30 -84 34 2 3 7 38 10 76 11 110 39 243 80 371
l26 81 63 28 c109 48 341 123 428 140 13 3 58 11 99 19 98 20 136 25 228 32
43 3 78 7 80 9 2 1 83 1 180 0 138 -3 195 -8 260 -24z m1032 -376 c143 -96
158 -108 289 -226 191 -171 353 -375 486 -609 62 -109 63 -127 21 -395 -11
-70 -32 -140 -42 -140 -5 1 -53 15 -107 32 -144 47 -372 101 -497 118 -44 7
-46 9 -125 121 -44 64 -87 125 -97 137 -9 12 -45 58 -79 102 -118 151 -267
327 -371 439 -26 28 -48 56 -48 61 0 6 20 91 44 190 24 99 47 197 51 217 l7
37 77 3 c42 2 119 2 171 0 l94 -3 126 -84z m-2434 -529 c54 -19 131 -46 169
-59 104 -38 439 -177 449 -188 5 -5 11 -35 12 -66 2 -71 13 -263 19 -358 2
-38 7 -122 10 -185 5 -107 7 -160 20 -366 5 -78 4 -82 -23 -105 -15 -13 -77
-67 -137 -119 -61 -52 -112 -97 -115 -100 -3 -3 -34 -30 -70 -60 -36 -30 -69
-60 -75 -66 -9 -9 -67 -59 -189 -164 -16 -14 -34 -29 -40 -35 -86 -77 -98 -86
-109 -77 -7 5 -39 18 -72 30 -151 52 -542 207 -671 267 -42 19 -74 40 -78 51
-19 65 -36 253 -38 419 0 109 10 316 18 358 2 12 6 46 9 77 9 91 12 99 64 158
60 69 229 234 331 323 151 131 374 298 401 299 8 0 60 -15 115 -34z m-1050
-680 c-22 -141 -29 -256 -30 -461 -1 -182 7 -333 19 -396 20 -94 17 -123 -19
-212 -38 -94 -82 -234 -112 -354 -10 -40 -21 -67 -25 -60 -13 24 -60 248 -74
347 -30 231 -26 498 10 725 24 148 83 367 131 480 l15 36 45 -37 c39 -32 44
-41 40 -68z m3746 -176 c57 -12 112 -23 122 -25 38 -9 202 -56 221 -64 11 -5
49 -20 84 -33 l65 -25 28 -79 c61 -169 112 -393 133 -580 3 -33 8 -77 10 -99
13 -115 7 -180 -21 -250 -97 -243 -255 -502 -404 -662 l-51 -54 -121 6 c-67 3
-124 7 -127 9 -3 2 -31 7 -61 10 -116 14 -377 69 -391 83 -4 4 -10 32 -13 62
-12 108 -50 319 -86 476 -12 50 -23 97 -25 105 -1 8 -17 64 -35 124 l-31 108
26 37 c15 20 45 61 67 91 145 198 323 493 447 738 25 49 24 49 163 22z m-1682
-641 c124 -39 252 -79 285 -89 113 -34 540 -172 543 -175 4 -4 60 -191 66
-220 2 -11 12 -49 21 -85 9 -36 19 -74 21 -85 4 -21 30 -150 39 -195 3 -14 15
-88 27 -164 l21 -140 -119 -115 c-66 -64 -149 -141 -184 -171 -36 -30 -67 -57
-70 -61 -13 -15 -211 -167 -316 -244 -132 -96 -121 -93 -264 -65 -30 6 -66 14
-80 16 -129 25 -423 124 -601 202 l-131 57 -40 115 c-34 99 -102 324 -113 370
-1 8 -8 33 -14 55 -5 22 -13 55 -16 74 -3 19 -8 37 -10 40 -4 8 -43 222 -50
276 -5 40 -4 40 88 117 50 43 106 90 123 105 16 15 77 68 135 118 57 49 120
104 139 121 142 128 255 221 264 218 6 -1 112 -35 236 -75z m2369 -796 c-44
-124 -154 -349 -227 -466 -82 -130 -241 -336 -229 -297 24 82 37 131 42 160
10 60 15 70 67 123 104 108 268 347 337 490 13 26 25 47 27 47 2 0 -6 -26 -17
-57z m-3058 -919 c275 -121 614 -228 794 -249 28 -3 57 -8 65 -10 8 -3 36 -46
63 -97 26 -51 79 -144 117 -205 l70 -113 -33 -1 c-17 0 -43 -3 -57 -6 -68 -14
-543 -4 -570 12 -3 1 -27 6 -55 9 -61 9 -68 10 -180 36 -174 41 -344 104 -528
196 -110 55 -329 194 -397 252 l-35 30 40 7 c151 26 419 105 538 159 28 14 55
25 58 25 3 1 53 -20 110 -45z"/>
</g>
</svg>
